<?xml version="1.0" standalone="no"?>
<!DOCTYPE svg PUBLIC "-//W3C//DTD SVG 20010904//EN"
 "http://www.w3.org/TR/2001/REC-SVG-20010904/DTD/svg10.dtd">
<svg version="1.0" xmlns="http://www.w3.org/2000/svg"
 width="512.000000pt" height="512.000000pt" viewBox="0 0 512.000000 512.000000"
 preserveAspectRatio="xMidYMid meet">
<metadata>
Created by potrace 1.11, written by Peter Selinger 2001-2013
</metadata>
<g transform="translate(0.000000,512.000000) scale(0.100000,-0.100000)"
fill="#000000" stroke="none">
<path d="M1572 4898 c-102 -15 -219 -81 -291 -164 -66 -74 -145 -248 -165
-359 -35 -193 -40 -500 -12 -675 3 -14 7 -45 10 -70 3 -25 9 -59 12 -75 l5
-31 -98 -23 c-147 -34 -383 -115 -502 -173 -266 -127 -444 -293 -506 -473 -23
-65 -28 -204 -9 -272 43 -165 204 -368 387 -490 89 -59 139 -67 185 -28 38 31
50 81 30 122 -7 15 -36 43 -63 60 -145 95 -258 212 -324 338 -35 68 -35 161 1
236 88 178 373 343 781 449 105 27 149 35 152 27 4 -14 17 -66 21 -84 8 -43
55 -193 106 -343 92 -270 88 -231 32 -335 -27 -49 -73 -142 -103 -205 -29 -63
-60 -128 -68 -145 -25 -52 -100 -246 -136 -350 -65 -189 -123 -444 -142 -620
-8 -70 -8 -269 0 -305 3 -14 8 -45 11 -70 3 -25 10 -53 15 -62 5 -9 9 -24 9
-33 0 -32 80 -180 122 -227 118 -128 279 -180 476 -152 194 27 368 91 540 197
96 60 119 127 63 189 -40 45 -97 46 -161 2 -104 -72 -266 -142 -370 -159 -25
-4 -54 -9 -65 -11 -11 -3 -57 -5 -102 -6 -70 -1 -90 3 -137 26 -168 82 -224
311 -171 701 15 113 64 305 117 460 58 172 104 283 201 489 55 114 62 126 71
105 5 -13 55 -118 111 -234 189 -388 392 -721 631 -1031 51 -67 99 -128 107
-135 7 -8 40 -45 74 -84 356 -413 769 -672 1054 -660 146 6 239 46 340 146
154 153 230 417 223 778 -4 194 -16 297 -69 586 -16 84 -89 357 -130 485 -75
235 -243 655 -291 728 -40 60 -137 60 -174 -1 -28 -46 -25 -73 19 -169 159
-343 297 -760 366 -1103 37 -189 44 -235 60 -405 5 -60 6 -289 1 -320 -2 -14
-7 -50 -11 -80 -15 -134 -77 -279 -147 -349 -156 -154 -437 -81 -778 202 -79
66 -244 227 -315 308 -94 106 -268 331 -335 434 -175 268 -275 439 -392 671
-71 139 -163 339 -198 429 -4 11 -12 32 -18 47 -9 23 -5 37 40 114 108 190
291 464 415 623 l58 74 155 -2 c85 -2 180 -4 210 -6 132 -7 247 -16 270 -20
14 -3 54 -7 90 -10 80 -7 229 -28 381 -55 125 -22 131 -23 204 -40 28 -6 61
-14 75 -16 65 -13 269 -70 400 -114 540 -179 894 -422 967 -665 15 -50 6 -131
-21 -192 -37 -78 -138 -174 -263 -248 -107 -62 -123 -81 -123 -141 0 -44 43
-89 92 -96 69 -11 313 147 411 266 265 322 131 697 -357 995 -140 86 -406 209
-541 250 -22 7 -49 16 -60 21 -47 21 -370 111 -480 135 -210 44 -529 96 -685
110 -36 3 -83 8 -105 10 -51 5 -214 14 -333 20 -52 2 -96 6 -98 8 -6 6 356
368 431 432 386 327 703 490 947 488 158 -1 259 -81 310 -247 18 -58 22 -97
22 -211 1 -77 -2 -173 -6 -212 -6 -64 -4 -76 16 -105 28 -43 64 -55 113 -40
43 14 72 47 79 95 13 81 16 323 4 395 -54 349 -231 523 -537 531 -195 5 -392
-60 -653 -215 -99 -58 -345 -236 -418 -303 -18 -16 -54 -48 -80 -71 -95 -84
-287 -278 -385 -390 -55 -63 -107 -121 -114 -129 -8 -10 -37 -15 -90 -16 -150
-4 -364 -22 -533 -45 -36 -6 -70 -10 -77 -10 -6 0 -14 19 -18 43 -4 23 -9 49
-10 58 -20 107 -28 490 -12 602 19 135 67 252 134 327 134 149 359 121 654
-81 47 -32 99 -62 116 -65 65 -13 131 54 119 120 -7 37 -46 77 -131 133 -235
155 -448 219 -633 191z m288 -1504 c0 -1 -42 -62 -93 -134 -51 -71 -126 -184
-167 -250 -41 -65 -78 -119 -81 -119 -4 -1 -11 16 -17 37 -6 20 -26 90 -46
155 -46 154 -69 244 -64 259 4 12 5 12 98 22 36 4 79 9 95 11 17 2 66 7 110
11 44 3 81 7 82 8 3 3 83 3 83 0z"/>
<path d="M2460 2974 c-84 -22 -140 -54 -200 -114 -207 -208 -151 -546 112
-680 271 -139 601 56 613 363 11 282 -256 500 -525 431z"/>
</g>
</svg>
